<svg id="Layer_1" data-name="Layer 1" xmlns="http://www.w3.org/2000/svg" xmlns:xlink="http://www.w3.org/1999/xlink" viewBox="0 0 389.15 84.34"><defs><style>.cls-1{fill:gray;}.cls-2{fill:#ee823e;}.cls-3{fill:url(#linear-gradient);}.cls-4{fill:url(#linear-gradient-2);}</style><linearGradient id="linear-gradient" x1="25.44" y1="41.61" x2="62.82" y2="41.61" gradientUnits="userSpaceOnUse"><stop offset="0" stop-color="#ee823e"/><stop offset="1" stop-color="#bf4000"/></linearGradient><linearGradient id="linear-gradient-2" x1="443.74" y1="110.31" x2="481.68" y2="110.31" gradientTransform="matrix(-1, 0, 0, 1, 537.04, 0)" gradientUnits="userSpaceOnUse"><stop offset="0" stop-color="#ee823e"/><stop offset="1" stop-color="#bf3100"/></linearGradient></defs><path class="cls-1" d="M137.16,106.13l5.08,12H96.83l27.73-60.69h10.11l27.73,60.69H146.87l-17.28-40-11.7,28Z" transform="translate(-21.04 -33.79)"/><path class="cls-1" d="M216.47,57.39l-4.83,11.7H184.7a5,5,0,0,0-3.73,1.4,5.24,5.24,0,0,0-1.34,3.83q0,3.39,5.32,5.28A56,56,0,0,0,196,81.89a63.45,63.45,0,0,1,13.09,3q11.4,5.13,11.2,16.88-.15,8.37-6.27,12.65a21.73,21.73,0,0,1-12.8,3.73H163.4l4.83-11.7h33a6,6,0,0,0,3.64-1,4.84,4.84,0,0,0,1.39-3.84,6,6,0,0,0-3.88-6q-3.69-1.65-12.67-3.11A77.71,77.71,0,0,1,175.2,89q-9.62-4.59-9.61-14.64a15.29,15.29,0,0,1,5.92-12.5,20.22,20.22,0,0,1,13.19-4.43Z" transform="translate(-21.04 -33.79)"/><path class="cls-1" d="M278.5,57.44l-5,11.5H255.65v49.19h-15V68.94H217.81l5-11.5Z" transform="translate(-21.04 -33.79)"/><path class="cls-1" d="M298,118.13H283V57.44h38.59a20.07,20.07,0,0,1,14.69,5.93q5.33,5.37,5.32,15.08t-5.32,15a19.79,19.79,0,0,1-9.16,5.22l16.77,19.42H325.7L309.57,99.46H298l5-12h18.62a4.19,4.19,0,0,0,3-1.39q2-2,2-7.57t-2-7.62a4.23,4.23,0,0,0-3-1.39H298Z" transform="translate(-21.04 -33.79)"/><path class="cls-1" d="M385,106.13l5.08,12H344.62l27.73-60.69h10.11l27.73,60.69H394.66l-17.28-40-11.7,28Z" transform="translate(-21.04 -33.79)"/><path class="cls-2" d="M63.13,33.79H95.78L52.52,102.14s-5.91,8.66,1.39,16H21l44.1-68.58S71.26,41.26,63.13,33.79Z" transform="translate(-21.04 -33.79)"/><path class="cls-3" d="M25.44,33.79H58.2S66.93,41,60.39,49.43H25.44Z" transform="translate(-21.04 -33.79)"/><path class="cls-4" d="M93.3,102.5H58.07s-6.27,7.21.27,15.63h35Z" transform="translate(-21.04 -33.79)"/></svg>